<svg xmlns="http://www.w3.org/2000/svg" xmlns:xlink="http://www.w3.org/1999/xlink" width="200" zoomAndPan="magnify" viewBox="0 0 150 149.999998" height="200" preserveAspectRatio="xMidYMid meet" version="1.0"><defs><clipPath id="97d15a9768"><path d="M 9.464844 12.230469 L 134.714844 12.230469 L 134.714844 137.480469 L 9.464844 137.480469 Z M 9.464844 12.230469 " clip-rule="nonzero"/></clipPath><clipPath id="c3001683e3"><path d="M 72.230469 12.230469 C 37.566406 12.230469 9.464844 40.332031 9.464844 74.996094 C 9.464844 109.664062 37.566406 137.761719 72.230469 137.761719 C 106.894531 137.761719 134.996094 109.664062 134.996094 74.996094 C 134.996094 40.332031 106.894531 12.230469 72.230469 12.230469 Z M 72.230469 12.230469 " clip-rule="nonzero"/></clipPath><clipPath id="4c84864984"><path d="M 35.820312 38.585938 L 108.644531 38.585938 L 108.644531 111.414062 L 35.820312 111.414062 Z M 35.820312 38.585938 " clip-rule="nonzero"/></clipPath><clipPath id="a8aed88fce"><path d="M 72.230469 38.585938 C 52.121094 38.585938 35.820312 54.890625 35.820312 75 C 35.820312 95.109375 52.121094 111.414062 72.230469 111.414062 C 92.34375 111.414062 108.644531 95.109375 108.644531 75 C 108.644531 54.890625 92.34375 38.585938 72.230469 38.585938 Z M 72.230469 38.585938 " clip-rule="nonzero"/></clipPath><clipPath id="f2c20a4ed7"><path d="M 66.226562 45.125 L 78.257812 45.125 L 78.257812 55.636719 L 66.226562 55.636719 Z M 66.226562 45.125 " clip-rule="nonzero"/></clipPath><clipPath id="5bd6a5723d"><path d="M 72.230469 45.125 L 78.238281 55.636719 L 66.226562 55.636719 Z M 72.230469 45.125 " clip-rule="nonzero"/></clipPath><clipPath id="a7809b5ea4"><path d="M 66.207031 94.351562 L 78.238281 94.351562 L 78.238281 104.863281 L 66.207031 104.863281 Z M 66.207031 94.351562 " clip-rule="nonzero"/></clipPath><clipPath id="12c2b9b344"><path d="M 72.230469 104.863281 L 66.226562 94.351562 L 78.238281 94.351562 Z M 72.230469 104.863281 " clip-rule="nonzero"/></clipPath><clipPath id="718557a13c"><path d="M 90.886719 68.988281 L 101.398438 68.988281 L 101.398438 81 L 90.886719 81 Z M 90.886719 68.988281 " clip-rule="nonzero"/></clipPath><clipPath id="d18f567ffc"><path d="M 101.398438 74.996094 L 90.886719 81 L 90.886719 68.988281 Z M 101.398438 74.996094 " clip-rule="nonzero"/></clipPath><clipPath id="9103f01bde"><path d="M 43.066406 68.96875 L 53.578125 68.96875 L 53.578125 81 L 43.066406 81 Z M 43.066406 68.96875 " clip-rule="nonzero"/></clipPath><clipPath id="7a707734da"><path d="M 43.066406 74.992188 L 53.578125 68.988281 L 53.578125 81 Z M 43.066406 74.992188 " clip-rule="nonzero"/></clipPath></defs><rect x="-15" width="180" fill="#ffffff" y="-15" height="179.999997" fill-opacity="1"/><rect x="-15" width="180" fill="#0194ff" y="-15" height="179.999997" fill-opacity="1"/><g clip-path="url(#97d15a9768)"><g clip-path="url(#c3001683e3)"><path stroke-linecap="butt" transform="matrix(0.75, 0, 0, 0.75, 9.464658, 12.232329)" fill="none" stroke-linejoin="miter" d="M 83.687752 -0.00248061 C 37.469 -0.00248061 0.000247376 37.466272 0.000247376 83.685024 C 0.000247376 129.908985 37.469 167.372529 83.687752 167.372529 C 129.906505 167.372529 167.375257 129.908985 167.375257 83.685024 C 167.375257 37.466272 129.906505 -0.00248061 83.687752 -0.00248061 Z M 83.687752 -0.00248061 " stroke="#ffffff" stroke-width="18" stroke-opacity="1" stroke-miterlimit="4"/></g></g><g clip-path="url(#4c84864984)"><g clip-path="url(#a8aed88fce)"><path fill="#ffffff" d="M 35.820312 38.585938 L 108.644531 38.585938 L 108.644531 111.414062 L 35.820312 111.414062 Z M 35.820312 38.585938 " fill-opacity="1" fill-rule="nonzero"/></g></g><g clip-path="url(#f2c20a4ed7)"><g clip-path="url(#5bd6a5723d)"><path fill="#131313" d="M 66.226562 45.125 L 78.257812 45.125 L 78.257812 55.636719 L 66.226562 55.636719 Z M 66.226562 45.125 " fill-opacity="1" fill-rule="nonzero"/></g></g><g clip-path="url(#a7809b5ea4)"><g clip-path="url(#12c2b9b344)"><path fill="#131313" d="M 78.238281 104.863281 L 66.207031 104.863281 L 66.207031 94.351562 L 78.238281 94.351562 Z M 78.238281 104.863281 " fill-opacity="1" fill-rule="nonzero"/></g></g><g clip-path="url(#718557a13c)"><g clip-path="url(#d18f567ffc)"><path fill="#131313" d="M 101.398438 68.988281 L 101.398438 81.019531 L 90.886719 81.019531 L 90.886719 68.988281 Z M 101.398438 68.988281 " fill-opacity="1" fill-rule="nonzero"/></g></g><g clip-path="url(#9103f01bde)"><g clip-path="url(#7a707734da)"><path fill="#131313" d="M 43.066406 81 L 43.066406 68.96875 L 53.578125 68.96875 L 53.578125 81 Z M 43.066406 81 " fill-opacity="1" fill-rule="nonzero"/></g></g></svg>