<?xml version="1.0" encoding="UTF-8" standalone="no"?>
<svg
   width="64"
   height="64"
   version="1.1"
   id="svg1"
   sodipodi:docname="roll.svg"
   inkscape:version="1.4.1 (93de688d07, 2025-03-30)"
   xmlns:inkscape="http://www.inkscape.org/namespaces/inkscape"
   xmlns:sodipodi="http://sodipodi.sourceforge.net/DTD/sodipodi-0.dtd"
   xmlns="http://www.w3.org/2000/svg"
   xmlns:svg="http://www.w3.org/2000/svg">
  <defs
     id="defs1">
    <inkscape:path-effect
       effect="spiro"
       id="path-effect9"
       is_visible="true"
       lpeversion="1" />
    <inkscape:path-effect
       effect="spiro"
       id="path-effect8"
       is_visible="true"
       lpeversion="1" />
    <inkscape:path-effect
       effect="spiro"
       id="path-effect7"
       is_visible="true"
       lpeversion="1" />
    <inkscape:path-effect
       effect="spiro"
       id="path-effect6"
       is_visible="true"
       lpeversion="1" />
    <inkscape:path-effect
       effect="spiro"
       id="path-effect5"
       is_visible="true"
       lpeversion="1" />
  </defs>
  <sodipodi:namedview
     id="namedview1"
     pagecolor="#505050"
     bordercolor="#eeeeee"
     borderopacity="1"
     inkscape:showpageshadow="0"
     inkscape:pageopacity="0"
     inkscape:pagecheckerboard="0"
     inkscape:deskcolor="#505050"
     showguides="true"
     inkscape:zoom="7.7945359"
     inkscape:cx="29.50785"
     inkscape:cy="31.496423"
     inkscape:window-width="1600"
     inkscape:window-height="828"
     inkscape:window-x="0"
     inkscape:window-y="0"
     inkscape:window-maximized="1"
     inkscape:current-layer="svg1">
    <sodipodi:guide
       position="32.150646,53.921648"
       orientation="1,0"
       id="guide1"
       inkscape:locked="false" />
    <sodipodi:guide
       position="5.3501616,30.965267"
       orientation="0,-1"
       id="guide2"
       inkscape:locked="false" />
  </sodipodi:namedview>
  <!-- Created with SVG-edit - https://github.com/SVG-Edit/svgedit-->
  <g
     class="layer"
     display="inline"
     id="g1"
     transform="translate(0,0.31017771)">
    <title
       id="title1">Layer 1</title>
    <circle
       cx="32.040001"
       cy="32.029999"
       fill="#000000"
       fill-opacity="0"
       id="svg_6"
       r="31.709999"
       stroke="#000000" />
  </g>
  <ellipse
     style="fill:#000000;stroke-width:1.52486"
     id="path2"
     cx="45.80291"
     cy="48.801292"
     rx="6.7205167"
     ry="6.8239098" />
  <path
     style="fill:#000000"
     id="path22"
     d="M 46.729406,41.905061 C 46.5844,41.481046 46.435548,41.058327 46.294387,40.633017 46.074356,39.970079 45.876584,39.299695 45.645858,38.640404 45.043644,36.9196 44.269525,34.895469 43.526453,33.240352 43.123133,32.341998 42.719401,31.440923 42.237415,30.582204 41.769068,29.747785 41.199622,28.974285 40.680725,28.170326 40.043406,27.481487 39.46566,26.732313 38.768769,26.10381 36.952083,24.4654 34.730717,23.288776 32.409027,22.55583 c -1.312563,-0.41437 -1.986984,-0.478807 -3.294923,-0.688365 -1.248631,-0.148596 -2.516231,-0.238322 -3.729888,0.157859 -0.506667,0.165394 -0.715598,0.309992 -1.180196,0.566883 -1.190432,0.739983 -2.295868,1.610591 -3.302566,2.585616 -0.191492,0.185467 -0.373727,0.380258 -0.560591,0.570388 -0.694996,0.672913 -1.273297,1.445978 -1.854199,2.215079 -0.294169,0.422825 -0.586473,0.846919 -0.87897,1.270912 -0.803015,1.164116 0.843293,2.299752 1.646309,1.135636 v 0 c 0.276232,-0.400481 0.553334,-0.800321 0.828755,-1.201357 0.529084,-0.700878 1.051412,-1.408681 1.68649,-2.020371 1.035071,-1.059516 2.153808,-2.035639 3.418924,-2.814799 0.377108,-0.220248 0.743211,-0.428851 1.17799,-0.517632 0.804074,-0.16419 1.630608,-0.03995 2.436179,0.02734 1.15018,0.178395 1.760022,0.235342 2.912755,0.58857 2.014858,0.617404 4.004625,1.640256 5.593123,3.03853 0.616671,0.542824 1.130006,1.192832 1.695009,1.789248 0.478377,0.732189 1.005679,1.434652 1.435132,2.196568 0.464313,0.823763 0.852997,1.688641 1.240855,2.551044 0.717312,1.594943 1.483929,3.592222 2.064872,5.252512 0.234127,0.669118 0.434523,1.349589 0.658416,2.0222 0.151252,0.454388 0.311321,0.905794 0.466982,1.35869 0.519948,1.315163 2.379869,0.579846 1.859921,-0.735317 z" />
  <path
     style="fill:#000000"
     id="path25"
     d="m 16.753273,31.268913 c 1.307031,1.799318 2.398157,3.737802 3.505319,5.662525 0.389204,0.674089 0.78038,1.347037 1.169773,2.021017 0.266128,0.460628 0.603958,0.980486 0.761213,1.499951 0.188912,0.624038 0.157047,1.07018 0.177882,1.720617 -0.05035,0.304463 -0.07341,0.614721 -0.151065,0.913389 -0.374354,1.439745 -1.36321,2.763092 -2.236469,3.940554 -0.406858,0.568682 -0.832913,1.126572 -1.211172,1.715335 -0.271148,0.422045 -0.507622,0.864358 -0.741203,1.307715 -0.05076,0.09678 -0.101523,0.193568 -0.152284,0.290352 -0.656861,1.252411 1.114316,2.181353 1.771177,0.928942 v 0 c 0.05041,-0.09611 0.100812,-0.192216 0.151219,-0.288325 0.197009,-0.375319 0.393829,-0.754039 0.622961,-1.111153 0.364126,-0.567509 0.774954,-1.104915 1.166813,-1.652946 1.086409,-1.470248 2.198365,-3.024915 2.608166,-4.842839 0.09565,-0.424317 0.113136,-0.862541 0.169704,-1.293811 -0.06156,-1.077945 -0.0099,-1.401178 -0.346354,-2.436154 -0.194969,-0.599814 -0.547164,-1.152684 -0.859667,-1.693581 -0.388488,-0.672414 -0.778751,-1.343801 -1.167061,-2.016317 -1.132159,-1.968131 -2.249905,-3.949144 -3.585099,-5.789891 -0.795226,-1.16945 -2.449079,-0.04483 -1.653853,1.12462 z" />
  <path
     style="fill:#000000"
     id="path26"
     d="m 15.105745,31.59295 c -0.307325,1.348197 -0.569935,2.707125 -0.762211,4.076853 -0.161326,1.149257 -0.200287,1.687471 -0.310069,2.835201 -0.156639,1.584677 -0.197203,3.176513 -0.283473,4.765508 -0.03091,0.0371 -0.04917,0.09049 -0.09274,0.111306 -0.05964,0.02849 -0.135345,0.0017 -0.196478,0.02686 -0.188096,0.07736 -0.355933,0.198623 -0.54342,0.277446 -0.913975,0.384251 -1.888337,0.587861 -2.850928,0.804059 -1.3098958,0.237734 -0.6631954,0.12964 -1.9398365,0.32587 -1.3977124,0.215407 -1.0930807,2.192071 0.3046316,1.976664 v 0 c 1.3584235,-0.209871 0.6662293,-0.09343 2.0761709,-0.35175 0.873727,-0.198652 1.458704,-0.309092 2.312281,-0.594879 1.031009,-0.345193 2.100961,-0.785541 2.707458,-1.754659 0.131875,-0.210723 0.146617,-0.475064 0.219925,-0.712595 0.08463,-1.561768 0.124279,-3.126317 0.27737,-4.683895 0.102683,-1.079332 0.143504,-1.633081 0.294305,-2.711133 0.190962,-1.365155 0.457435,-2.717727 0.759801,-4.062058 0.232496,-1.394972 -1.740292,-1.72377 -1.972787,-0.328798 z" />
  <path
     style="fill:#000000"
     id="path28"
     d="m 42.628085,34.163142 c -0.472689,1.292208 -0.915167,2.594309 -1.403837,3.880852 -0.209782,0.554157 -0.411001,1.111473 -0.616711,1.667107 -0.01683,0.04546 -0.245553,0.646259 -0.274512,0.702599 -0.04247,0.08262 -0.104613,0.15353 -0.156919,0.230296 -0.763006,0.716811 -1.700579,1.204749 -2.586838,1.74681 -0.24794,0.151647 -0.491828,0.309824 -0.737742,0.464735 -1.12892,0.733746 -2.166861,1.594493 -3.097269,2.566259 -0.227765,0.229122 -0.419182,0.48641 -0.60179,0.751413 -0.789095,1.173597 0.870622,2.289545 1.659716,1.115948 v 0 c 0.112125,-0.176526 0.243686,-0.337392 0.389869,-0.487546 0.812144,-0.857095 1.729358,-1.606036 2.716241,-2.254326 0.229991,-0.14518 0.457935,-0.293654 0.689973,-0.43554 0.630021,-0.385245 0.804275,-0.458399 1.425345,-0.862029 0.379378,-0.246556 0.972499,-0.65605 1.303197,-0.965315 0.197435,-0.184638 0.36449,-0.399292 0.546735,-0.598939 0.102285,-0.17668 0.214755,-0.347844 0.306857,-0.53004 0.05916,-0.117028 0.09816,-0.243207 0.14579,-0.365384 0.263003,-0.674656 0.497123,-1.360385 0.757767,-2.035984 0.493254,-1.299017 0.940482,-2.613524 1.417612,-3.918243 0.475651,-1.331825 -1.407833,-2.004497 -1.883484,-0.672673 z" />
  <circle
     id="path29"
     style="fill:#000000;stroke:#000000"
     cx="42.597736"
     cy="24.400646"
     r="0.0068859453" />
  <path
     style="fill:#000000"
     id="path30"
     d="m 41.907916,34.309513 c 0.04239,1.644541 -0.267402,3.270366 -0.555558,4.881766 -0.340301,1.736335 -0.747513,3.45956 -1.039625,5.205266 -0.138645,0.828559 -0.175921,1.170439 -0.280339,1.977607 -0.0128,0.115761 -0.120633,1.10106 -0.145612,1.293874 -0.01653,0.127583 -0.01978,0.258637 -0.05746,0.381645 -0.01501,0.049 -0.216766,0.103717 -0.26012,0.129724 -0.177947,0.106744 -0.344957,0.230745 -0.517436,0.346118 -0.753086,0.481152 -1.50428,0.964969 -2.251149,1.455705 -1.181854,0.776674 -0.08347,2.448067 1.098382,1.671394 v 0 c 0.760155,-0.499632 1.525519,-0.990958 2.290915,-1.482527 0.56049,-0.397011 0.96855,-0.610845 1.365165,-1.19778 0.236171,-0.349501 0.267912,-0.684471 0.318579,-1.075552 0.0266,-0.205307 0.125306,-1.112428 0.142276,-1.266555 0.09746,-0.75676 0.135451,-1.102577 0.264826,-1.877477 0.291751,-1.747463 0.702349,-3.471734 1.04051,-5.210191 0.307503,-1.727615 0.630963,-3.470357 0.586644,-5.233017 0,-1.414214 -2,-1.414214 -2,0 z" />
  <g
     id="g37"
     transform="translate(-2.181015,-3.207375)">
    <path
       sodipodi:type="spiral"
       style="fill:none;fill-rule:evenodd;stroke:#000000"
       id="path35"
       sodipodi:cx="24.504345"
       sodipodi:cy="6.1581602"
       sodipodi:expansion="1"
       sodipodi:revolution="3"
       sodipodi:radius="8.2368984"
       sodipodi:argument="-18.196709"
       sodipodi:t0="0.64603573"
       d="M 29.641363,7.5465411 C 29.075999,10.618074 25.946548,12.540861 22.936874,11.957812 19.504721,11.292918 17.363008,7.7826257 18.04206,4.4115998 c 0.764019,-3.7928296 4.655626,-6.1537026 8.387935,-5.37835838 4.15355,0.86285222 6.733754,5.13611988 5.861902,9.22965878 -0.220586,1.0357011 -0.64683,2.0248528 -1.24451,2.8987688"
       transform="matrix(-0.89483315,0,0,1.0039613,56.965931,7.0345411)" />
    <path
       sodipodi:type="star"
       style="fill:#000000"
       id="path36"
       inkscape:flatsided="true"
       sodipodi:sides="3"
       sodipodi:cx="28.738079"
       sodipodi:cy="11.80314"
       sodipodi:r1="5.1221685"
       sodipodi:r2="2.6448691"
       sodipodi:arg1="-0.38515754"
       sodipodi:arg2="0.66204001"
       inkscape:rounded="0"
       inkscape:randomized="0"
       d="M 33.484994,9.8787146 28.031223,16.876301 24.698021,8.6544035 Z"
       inkscape:transform-center-x="-0.32994867"
       inkscape:transform-center-y="-1.02636"
       transform="translate(4.746915,4.87521)" />
  </g>
</svg>
